<svg xmlns="http://www.w3.org/2000/svg" xmlns:xlink="http://www.w3.org/1999/xlink" width="500" zoomAndPan="magnify" viewBox="0 0 375 374.999991" height="500" preserveAspectRatio="xMidYMid meet" version="1.0"><defs><g/><clipPath id="5b5a40d575"><path d="M 234.460938 200.09375 L 275.761719 200.09375 L 275.761719 241.394531 L 234.460938 241.394531 Z M 234.460938 200.09375 " clip-rule="nonzero"/></clipPath><clipPath id="a619e2551f"><path d="M 255.113281 200.09375 C 243.707031 200.09375 234.460938 209.339844 234.460938 220.746094 C 234.460938 232.148438 243.707031 241.394531 255.113281 241.394531 C 266.515625 241.394531 275.761719 232.148438 275.761719 220.746094 C 275.761719 209.339844 266.515625 200.09375 255.113281 200.09375 Z M 255.113281 200.09375 " clip-rule="nonzero"/></clipPath><clipPath id="b817582c4c"><path d="M 68.042969 65.296875 L 141.863281 65.296875 L 141.863281 139.117188 L 68.042969 139.117188 Z M 68.042969 65.296875 " clip-rule="nonzero"/></clipPath><clipPath id="3bbaffcbcb"><path d="M 104.953125 65.296875 C 84.566406 65.296875 68.042969 81.820312 68.042969 102.207031 C 68.042969 122.59375 84.566406 139.117188 104.953125 139.117188 C 125.335938 139.117188 141.863281 122.59375 141.863281 102.207031 C 141.863281 81.820312 125.335938 65.296875 104.953125 65.296875 Z M 104.953125 65.296875 " clip-rule="nonzero"/></clipPath><clipPath id="4252e65d15"><path d="M 246.390625 212.023438 L 263.835938 212.023438 L 263.835938 229.46875 L 246.390625 229.46875 Z M 246.390625 212.023438 " clip-rule="nonzero"/></clipPath><clipPath id="b5a88138e1"><path d="M 255.113281 212.023438 C 250.292969 212.023438 246.390625 215.925781 246.390625 220.746094 C 246.390625 225.5625 250.292969 229.46875 255.113281 229.46875 C 259.929688 229.46875 263.835938 225.5625 263.835938 220.746094 C 263.835938 215.925781 259.929688 212.023438 255.113281 212.023438 Z M 255.113281 212.023438 " clip-rule="nonzero"/></clipPath></defs><rect x="-37.5" width="450" fill="#ffffff" y="-37.499999" height="449.999989" fill-opacity="1"/><rect x="-37.5" width="450" fill="#39462c" y="-37.499999" height="449.999989" fill-opacity="1"/><g fill="#ffffff" fill-opacity="1"><g transform="translate(88.291945, 221.207659)"><g><path d="M 35.703125 -73.703125 L 35.703125 0 L 8.640625 0 L 8.640625 -118.75 L 35.703125 -118.75 L 82.90625 -45.046875 L 83.203125 -45.046875 L 83.203125 -118.75 L 110.25 -118.75 L 110.25 0 L 83.203125 0 L 35.984375 -73.703125 Z M 35.703125 -73.703125 "/></g></g></g><g fill="#ffffff" fill-opacity="1"><g transform="translate(163.503807, 221.207659)"><g><path d="M 35.703125 -47.640625 L 35.703125 0 L 8.640625 0 L 8.640625 -118.75 L 35.703125 -118.75 L 35.703125 -71.390625 L 73.984375 -71.390625 L 73.984375 -118.75 L 101.046875 -118.75 L 101.046875 0 L 73.984375 0 L 73.984375 -47.640625 Z M 35.703125 -47.640625 "/></g></g></g><g clip-path="url(#5b5a40d575)"><g clip-path="url(#a619e2551f)"><path fill="#39462c" d="M 234.460938 200.09375 L 275.761719 200.09375 L 275.761719 241.394531 L 234.460938 241.394531 Z M 234.460938 200.09375 " fill-opacity="1" fill-rule="nonzero"/></g></g><g clip-path="url(#b817582c4c)"><g clip-path="url(#3bbaffcbcb)"><path fill="#39462c" d="M 68.042969 65.296875 L 141.863281 65.296875 L 141.863281 139.117188 L 68.042969 139.117188 Z M 68.042969 65.296875 " fill-opacity="1" fill-rule="nonzero"/></g></g><g clip-path="url(#4252e65d15)"><g clip-path="url(#b5a88138e1)"><path fill="#f2efeb" d="M 246.390625 212.023438 L 263.835938 212.023438 L 263.835938 229.46875 L 246.390625 229.46875 Z M 246.390625 212.023438 " fill-opacity="1" fill-rule="nonzero"/></g></g><g fill="#a6a6a6" fill-opacity="1"><g transform="translate(126.211887, 249.103488)"><g><path d="M 8.984375 -11.96875 L 11.53125 -11.96875 L 11.53125 0 L 9.09375 0 L 3.34375 -7.8125 L 3.34375 0 L 0.796875 0 L 0.796875 -11.96875 L 3.1875 -11.96875 L 8.984375 -4.09375 Z M 8.984375 -11.96875 "/></g></g></g><g fill="#a6a6a6" fill-opacity="1"><g transform="translate(143.409464, 249.103488)"><g><path d="M 0.8125 -11.96875 L 8.28125 -11.96875 L 8.28125 -9.640625 L 3.375 -9.640625 L 3.375 -7.46875 L 7.6875 -7.46875 L 7.6875 -5.140625 L 3.375 -5.140625 L 3.375 -2.3125 L 8.28125 -2.3125 L 8.28125 0 L 0.8125 0 Z M 0.8125 -11.96875 "/></g></g></g><g fill="#a6a6a6" fill-opacity="1"><g transform="translate(157.383905, 249.103488)"><g><path d="M 15.578125 -11.96875 L 18.234375 -11.96875 L 14.859375 0 L 11.6875 0 L 9.234375 -8.046875 L 6.765625 0 L 3.625 0 L 0.25 -11.96875 L 2.921875 -11.96875 L 5.28125 -2.921875 L 8 -11.96875 L 10.46875 -11.96875 L 13.203125 -2.859375 Z M 15.578125 -11.96875 "/></g></g></g><g fill="#a6a6a6" fill-opacity="1"><g transform="translate(180.791491, 249.103488)"><g><path d="M 8.40625 -6.15625 C 8.875 -5.875 9.234375 -5.515625 9.484375 -5.078125 C 9.734375 -4.640625 9.859375 -4.132812 9.859375 -3.5625 C 9.859375 -3.019531 9.726562 -2.515625 9.46875 -2.046875 C 9.207031 -1.578125 8.84375 -1.164062 8.375 -0.8125 C 7.945312 -0.488281 7.457031 -0.238281 6.90625 -0.0625 C 6.363281 0.113281 5.789062 0.207031 5.1875 0.21875 C 4.570312 0.21875 3.988281 0.132812 3.4375 -0.03125 C 2.882812 -0.195312 2.394531 -0.453125 1.96875 -0.796875 C 1.332031 -1.273438 0.894531 -1.859375 0.65625 -2.546875 L 3.015625 -3.640625 C 3.015625 -3.523438 3.050781 -3.382812 3.125 -3.21875 C 3.207031 -3.050781 3.332031 -2.890625 3.5 -2.734375 C 3.675781 -2.578125 3.898438 -2.441406 4.171875 -2.328125 C 4.441406 -2.210938 4.769531 -2.15625 5.15625 -2.15625 C 5.476562 -2.15625 5.757812 -2.191406 6 -2.265625 C 6.238281 -2.347656 6.4375 -2.445312 6.59375 -2.5625 C 6.757812 -2.6875 6.882812 -2.820312 6.96875 -2.96875 C 7.0625 -3.125 7.109375 -3.28125 7.109375 -3.4375 C 7.109375 -3.625 7.046875 -3.796875 6.921875 -3.953125 C 6.804688 -4.109375 6.625 -4.226562 6.375 -4.3125 C 5.925781 -4.476562 5.453125 -4.613281 4.953125 -4.71875 C 4.453125 -4.820312 3.960938 -4.953125 3.484375 -5.109375 C 3.015625 -5.273438 2.578125 -5.492188 2.171875 -5.765625 C 1.765625 -6.035156 1.445312 -6.414062 1.21875 -6.90625 C 1 -7.332031 0.890625 -7.785156 0.890625 -8.265625 C 0.890625 -8.804688 1.015625 -9.328125 1.265625 -9.828125 C 1.523438 -10.335938 1.875 -10.769531 2.3125 -11.125 C 2.726562 -11.445312 3.191406 -11.695312 3.703125 -11.875 C 4.222656 -12.050781 4.769531 -12.140625 5.34375 -12.140625 C 5.914062 -12.140625 6.460938 -12.050781 6.984375 -11.875 C 7.515625 -11.707031 7.988281 -11.460938 8.40625 -11.140625 C 8.8125 -10.835938 9.128906 -10.484375 9.359375 -10.078125 L 7.4375 -8.765625 C 7.207031 -9.085938 6.914062 -9.347656 6.5625 -9.546875 C 6.207031 -9.742188 5.804688 -9.84375 5.359375 -9.84375 C 4.753906 -9.84375 4.285156 -9.707031 3.953125 -9.4375 C 3.617188 -9.164062 3.453125 -8.8125 3.453125 -8.375 C 3.453125 -8.164062 3.546875 -7.984375 3.734375 -7.828125 C 3.921875 -7.671875 4.160156 -7.53125 4.453125 -7.40625 C 4.753906 -7.28125 5.09375 -7.171875 5.46875 -7.078125 C 5.84375 -6.984375 6.210938 -6.890625 6.578125 -6.796875 C 6.941406 -6.703125 7.285156 -6.601562 7.609375 -6.5 C 7.929688 -6.394531 8.195312 -6.28125 8.40625 -6.15625 Z M 8.40625 -6.15625 "/></g></g></g><g fill="#a6a6a6" fill-opacity="1"><g transform="translate(196.065319, 249.103488)"><g/></g></g><g fill="#a6a6a6" fill-opacity="1"><g transform="translate(205.58476, 249.103488)"><g><path d="M 8.828125 -11.96875 L 11.390625 -11.96875 L 11.390625 0 L 8.828125 0 L 8.828125 -5.140625 L 3.34375 -5.140625 L 3.34375 0 L 0.796875 0 L 0.796875 -11.96875 L 3.34375 -11.96875 L 3.34375 -7.46875 L 8.828125 -7.46875 Z M 8.828125 -11.96875 "/></g></g></g><g fill="#a6a6a6" fill-opacity="1"><g transform="translate(222.647328, 249.103488)"><g><path d="M 7.5625 -11.96875 L 10.109375 -11.96875 L 10.109375 -4.3125 C 10.109375 -3.71875 9.984375 -3.144531 9.734375 -2.59375 C 9.484375 -2.039062 9.144531 -1.554688 8.71875 -1.140625 C 8.289062 -0.722656 7.789062 -0.390625 7.21875 -0.140625 C 6.65625 0.0976562 6.050781 0.21875 5.40625 0.21875 C 4.757812 0.21875 4.148438 0.0976562 3.578125 -0.140625 C 3.003906 -0.390625 2.503906 -0.722656 2.078125 -1.140625 C 1.660156 -1.554688 1.328125 -2.039062 1.078125 -2.59375 C 0.828125 -3.144531 0.703125 -3.71875 0.703125 -4.3125 L 0.703125 -11.96875 L 3.25 -11.96875 L 3.25 -4.828125 C 3.25 -4.484375 3.304688 -4.160156 3.421875 -3.859375 C 3.535156 -3.566406 3.6875 -3.304688 3.875 -3.078125 C 4.070312 -2.847656 4.300781 -2.664062 4.5625 -2.53125 C 4.832031 -2.394531 5.113281 -2.328125 5.40625 -2.328125 C 5.707031 -2.328125 5.984375 -2.394531 6.234375 -2.53125 C 6.492188 -2.664062 6.722656 -2.847656 6.921875 -3.078125 C 7.117188 -3.304688 7.273438 -3.566406 7.390625 -3.859375 C 7.503906 -4.160156 7.5625 -4.484375 7.5625 -4.828125 Z M 7.5625 -11.96875 "/></g></g></g><g fill="#a6a6a6" fill-opacity="1"><g transform="translate(238.326145, 249.103488)"><g><path d="M 8.28125 -6.515625 C 8.757812 -6.191406 9.140625 -5.769531 9.421875 -5.25 C 9.703125 -4.738281 9.84375 -4.175781 9.84375 -3.5625 C 9.84375 -3.0625 9.742188 -2.59375 9.546875 -2.15625 C 9.359375 -1.726562 9.097656 -1.351562 8.765625 -1.03125 C 8.441406 -0.71875 8.0625 -0.46875 7.625 -0.28125 C 7.195312 -0.09375 6.738281 0 6.25 0 L 0.8125 0 L 0.8125 -11.96875 L 6.078125 -11.96875 C 6.523438 -11.96875 6.945312 -11.878906 7.34375 -11.703125 C 7.738281 -11.523438 8.082031 -11.289062 8.375 -11 C 8.675781 -10.707031 8.910156 -10.363281 9.078125 -9.96875 C 9.242188 -9.570312 9.328125 -9.148438 9.328125 -8.703125 C 9.328125 -8.222656 9.234375 -7.800781 9.046875 -7.4375 C 8.867188 -7.070312 8.613281 -6.765625 8.28125 -6.515625 Z M 3.375 -7.46875 L 6.078125 -7.46875 C 6.378906 -7.46875 6.632812 -7.570312 6.84375 -7.78125 C 7.0625 -8 7.171875 -8.265625 7.171875 -8.578125 C 7.171875 -8.878906 7.0625 -9.128906 6.84375 -9.328125 C 6.632812 -9.535156 6.378906 -9.640625 6.078125 -9.640625 L 3.375 -9.640625 Z M 6.25 -2.3125 C 6.582031 -2.3125 6.863281 -2.453125 7.09375 -2.734375 C 7.332031 -3.023438 7.453125 -3.363281 7.453125 -3.75 C 7.453125 -4.144531 7.332031 -4.472656 7.09375 -4.734375 C 6.863281 -5.003906 6.582031 -5.140625 6.25 -5.140625 L 3.375 -5.140625 L 3.375 -2.3125 Z M 6.25 -2.3125 "/></g></g></g></svg>